<svg xmlns="http://www.w3.org/2000/svg" viewBox="0 0 402 34.7">
  <title>preload-anim</title>
  <g>
    <path d="M20.5,4.5l1.6-2.1C23.8.7,27.5-.5,29.9.6s2.5,2.9,2.9,4.7,0,5.2,0,7.9.6,4.4,2.6,5.4,4.3,1.3,5.8,2.9,1,6.4-1,8.8S32.9,35.9,28.9,34s-4.4-3.3-7.5-3.9-6.8,1-10.2,2.9-4.1,2-6.5,1.5A6.3,6.3,0,0,1,.4,29.9c-.7-3,.7-7.3,3.6-8.7l6.2-3.1a23,23,0,0,0,5.1-3.5c1.3-1.2,2.1-3.7,2.8-5.3A26.9,26.9,0,0,1,20.5,4.5Z"/>
    <path d="M72.9,26.6c-1.6-.7-3-1.6-5.5-1.6s-5.6,2-8.4,4-3.5,2.5-4.9,2.6a2.3,2.3,0,0,1-2.2-2.1c-.3-1.4,0-4,1.5-4.7s.8-1,1.7-2.7,2.2-2.7,2.6-4.3a10.5,10.5,0,0,0-.6-4.4,17.3,17.3,0,0,1,.2-3.9A5.4,5.4,0,0,1,58,6.4c1.4-2.1,5-3.8,7.6-3a7.9,7.9,0,0,1,3.9,3.5,38.4,38.4,0,0,1,1.6,5.7,3.9,3.9,0,0,0,3,3.2c1.8.4,3.9.3,5.5,1.3s1.1,4.6-.2,6.3S75.4,27.5,72.9,26.6Z"/>
    <path d="M121.8,18.9a13.3,13.3,0,0,0-3.5.9,26.9,26.9,0,0,0-6.8,5,45.6,45.6,0,0,0-3.2,3.7c-.5.6-.2.3-.2.3s-.5-.6-.5-.6-2.4,0-2.8-2.3.6-3.4,0-5.1a8,8,0,0,0-3.8-3.5,7.4,7.4,0,0,1-2.1-3.1,5.7,5.7,0,0,1-.2-4.1c1.2-2.3,4.6-4.6,7.4-4.1A16,16,0,0,1,111,8.3c1.3,1.3,2.2,2.5,3.1,3.5s2,1,3.7.9,3.5-.5,5-.2a2.8,2.8,0,0,1,.7,3.8C123.3,17.4,122.8,18.9,121.8,18.9Z"/>
    <path d="M171.7,8.7c.3.9-.3,2-1.4,3.2s-3.4,3.8-5.1,6.1-2.1,3.7-1.6,4.9,1.6,1.6,1.9,2.6-1.2,2.9-2.5,3.5-5.8,1-7.3-1.9-1-4.1-2.6-5.9-4.4-2.4-7.1-2.6-3.2-.8-4.3-2.3a5.4,5.4,0,0,1-1.1-5c.9-2.7,4.1-5.4,7.1-5.2s4.2.7,6,1a17.9,17.9,0,0,0,4.6,1.3c1.3.2,2.7-.7,4.2-1.3a21.9,21.9,0,0,1,4.6-1.8c1.2.3,1.4.9,1.5,1.3S171.4,7.7,171.7,8.7Z"/>
    <path d="M209.7,1.8A16.7,16.7,0,0,1,212,.6c2.3-.9,6.1-.4,7.8,1.6s1.1,3.7.6,5.6-2.1,4.7-3.3,7.2-1.4,4.2,0,5.9,3.4,3,4.1,5.1-1.8,6.2-4.7,7.5-9,2-11.7-1.5-2.6-4.8-5.2-6.7-6.6-1.9-10.4-1.7c-2.3.1-4.7,0-6.5-1.4a6.1,6.1,0,0,1-2-6c.6-3,3.7-6.3,6.9-6.3l7-.2a32.1,32.1,0,0,0,6.1-.9c1.7-.6,3.5-2.5,4.8-3.7A22.7,22.7,0,0,1,209.7,1.8Z"/>
    <path d="M262.9,7.4a5.4,5.4,0,0,1-2.4,5.1c-1.1,1.8-2.7,2.7-4.3,4.4a6.2,6.2,0,0,0-2.6,5.2c.5,1.5,1.5,2.7,1.4,4.2s-2.2,4.1-4.5,4.5-6.6-.3-7.9-3.3-1-4.1-2.4-5.8-4-2-6.5-2.2a6.8,6.8,0,0,1-4.2-2.3,7.1,7.1,0,0,1-.9-5.7c.6-2.5,3-5.1,5.6-5.3a24.5,24.5,0,0,1,7.2-.6c1.9,0,3.8.5,5.3.5s2.6-.6,3.6-.8a26.4,26.4,0,0,1,3.8-1.1,17.2,17.2,0,0,1,3.2-.2C259.6,4,262.1,5.3,262.9,7.4Z"/>
    <path d="M305.3,15.3c-.6,2.3-3.1,4.6-5.3,4.6s-3.3.7-5.4,1.6a9,9,0,0,0-5.1,4.4c-.4,1.4-.4,2.6-1.3,3.3s-2.7,2-4.4,1.5a5.3,5.3,0,0,1-4.1-5.1c.1-1.7.8-3.4.5-4.9a4.7,4.7,0,0,0-2.6-2.6,11.4,11.4,0,0,1-1.9-3.3,8.4,8.4,0,0,1,.2-5.4,6.3,6.3,0,0,1,4.2-4.3,15.5,15.5,0,0,1,7.4-1,15.9,15.9,0,0,1,4.5,2,19.6,19.6,0,0,1,2.4,2.1,5.3,5.3,0,0,0,3.4,1c1.3.3,2.9.2,4.1.8A5.1,5.1,0,0,1,305.3,15.3Z"/>
    <path d="M350.6,23.2c-1.6,2.6-5.3,5.1-8.3,4.1s-3.9-1.3-6.5-1.1-5.4,1.8-7.6,3.6-2.3,2.3-3.9,2.5a4.8,4.8,0,0,1-4.4-1.6,6.2,6.2,0,0,1-.3-6.9,40.2,40.2,0,0,0,3.4-4c.4-1.4,1.2-2,1.3-3a14,14,0,0,0,.4-4.4A14.2,14.2,0,0,1,326,7.3a6.3,6.3,0,0,1,2.9-3.1c1.9-1.3,5.2-2.3,7.6-1.5a6.6,6.6,0,0,1,3.7,3.4,21.8,21.8,0,0,1,1.3,5,3.9,3.9,0,0,0,2.9,3.2c1.6.6,3.6.8,5,1.9S351.7,20.9,350.6,23.2Z"/>
    <path d="M378.8,4.5l1.6-2.1c1.7-1.7,5.3-2.9,7.8-1.8s2.5,2.8,2.9,4.7,0,5.2,0,7.9.6,4.4,2.6,5.4,4.3,1.3,5.8,2.9,1,6.4-1,8.8-7.3,5.6-11.3,3.7-4.4-3.3-7.5-3.9-6.8,1-10.2,2.9-4.2,2-6.5,1.5a6.3,6.3,0,0,1-4.3-4.6c-.7-3,.7-7.3,3.6-8.7l6.2-3.1a28.9,28.9,0,0,0,5.1-3.5c1.3-1.2,2.1-3.7,2.8-5.3A26.9,26.9,0,0,1,378.8,4.5Z"/>
  </g>
</svg>
